/* XPM */
static char *ffd64f23c68f4c82afc89a5fb2e78843VQnpZO8RidPUROcX[] = {
/* columns rows colors chars-per-pixel */
"64 64 5 1 ",
"  c black",
". c #ED1C24",
"X c #B97A57",
"o c #FFF200",
"O c #00A2E8",
/* pixels */
"   .............................XXXXXXXXXXXXXXXXXXXXXXXXXXXXX   ",
"   .............................XXXXXXXXXXXXXXXXXXXXXXXXXXXXX   ",
"   .............................XXXXXXXXXXXXXXXXXXXXXXXXXXXXX   ",
"   .............................XXXXXXXXXXXXXXXXXXXXXXXXXXXXX   ",
"   .............................XXXXXXXXXXXXXXXXXXXXXXXXXXXXX   ",
"   .............................XXXXXXXXXXXXXXXXXXXXXXXXXXXXX   ",
"   .............................XXXXXXXXXXXXXXXXXXXXXXXXXXXXX   ",
"   .............................XXXXXXXXXXXXXXXXXXXXXXXXXXXXX   ",
"   .............................XXXXXXXXXXXXXXXXXXXXXXXXXXXXX   ",
"   .............................XXXXXXXXXXXXXXXXXXXXXXXXXXXXX   ",
"   .............................XXXXXXXXXXXXXXXXXXXXXXXXXXXXX   ",
"   .............................XXXXXXXXXXXXXXXXXXXXXXXXXXXXX   ",
"   .............................XXXXXXXXXXXXXXXXXXXXXXXXXXXXX   ",
"   .............................XXXXXXXXXXXXXXXXXXXXXXXXXXXXX   ",
"   .............................XXXXXXXXXXXXXXXXXXXXXXXXXXXXX   ",
"   .............................XXXXXXXXXXXXXXXXXXXXXXXXXXXXX   ",
"   .............................XXXXXXXXXXXXXXXXXXXXXXXXXXXXX   ",
"   .............................XXXXXXXXXXXXXXXXXXXXXXXXXXXXX   ",
"   .............................XXXXXXXXXXXXXXXXXXXXXXXXXXXXX   ",
"   .............................XXXXXXXXXXXXXXXXXXXXXXXXXXXXX   ",
"   .............................XXXXXXXXXXXXXXXXXXXXXXXXXXXXX   ",
"   .............................XXXXXXXXXXXXXXXXXXXXXXXXXXXXX   ",
"   .............................XXXXXXXXXXXXXXXXXXXXXXXXXXXXX   ",
"   .............................XXXXXXXXXXXXXXXXXXXXXXXXXXXXX   ",
"   .............................XXXXXXXXXXXXXXXXXXXXXXXXXXXXX   ",
"   .............................XXXXXXXXXXXXXXXXXXXXXXXXXXXXX   ",
"   .............................XXXXXXXXXXXXXXXXXXXXXXXXXXXXX   ",
"   .............................XXXXXXXXXXXXXXXXXXXXXXXXXXXXX   ",
"   .............................XXXXXXXXXXXXXXXXXXXXXXXXXXXXX   ",
"   .............................XXXXXXXXXXXXXXXXXXXXXXXXXXXXX   ",
"   .............................XXXXXXXXXXXXXXXXXXXXXXXXXXXXX   ",
"   .............................XXXXXXXXXXXXXXXXXXXXXXXXXXXXX   ",
"   oooooooooooooooooooooooooooooOOOOOOOOOOOOOOOOOOOOOOOOOOOOO   ",
"   oooooooooooooooooooooooooooooOOOOOOOOOOOOOOOOOOOOOOOOOOOOO   ",
"   oooooooooooooooooooooooooooooOOOOOOOOOOOOOOOOOOOOOOOOOOOOO   ",
"   oooooooooooooooooooooooooooooOOOOOOOOOOOOOOOOOOOOOOOOOOOOO   ",
"   oooooooooooooooooooooooooooooOOOOOOOOOOOOOOOOOOOOOOOOOOOOO   ",
"   oooooooooooooooooooooooooooooOOOOOOOOOOOOOOOOOOOOOOOOOOOOO   ",
"   oooooooooooooooooooooooooooooOOOOOOOOOOOOOOOOOOOOOOOOOOOOO   ",
"   oooooooooooooooooooooooooooooOOOOOOOOOOOOOOOOOOOOOOOOOOOOO   ",
"   oooooooooooooooooooooooooooooOOOOOOOOOOOOOOOOOOOOOOOOOOOOO   ",
"   oooooooooooooooooooooooooooooOOOOOOOOOOOOOOOOOOOOOOOOOOOOO   ",
"   oooooooooooooooooooooooooooooOOOOOOOOOOOOOOOOOOOOOOOOOOOOO   ",
"   oooooooooooooooooooooooooooooOOOOOOOOOOOOOOOOOOOOOOOOOOOOO   ",
"   oooooooooooooooooooooooooooooOOOOOOOOOOOOOOOOOOOOOOOOOOOOO   ",
"   oooooooooooooooooooooooooooooOOOOOOOOOOOOOOOOOOOOOOOOOOOOO   ",
"   oooooooooooooooooooooooooooooOOOOOOOOOOOOOOOOOOOOOOOOOOOOO   ",
"   oooooooooooooooooooooooooooooOOOOOOOOOOOOOOOOOOOOOOOOOOOOO   ",
"   oooooooooooooooooooooooooooooOOOOOOOOOOOOOOOOOOOOOOOOOOOOO   ",
"   oooooooooooooooooooooooooooooOOOOOOOOOOOOOOOOOOOOOOOOOOOOO   ",
"   oooooooooooooooooooooooooooooOOOOOOOOOOOOOOOOOOOOOOOOOOOOO   ",
"   oooooooooooooooooooooooooooooOOOOOOOOOOOOOOOOOOOOOOOOOOOOO   ",
"   oooooooooooooooooooooooooooooOOOOOOOOOOOOOOOOOOOOOOOOOOOOO   ",
"   oooooooooooooooooooooooooooooOOOOOOOOOOOOOOOOOOOOOOOOOOOOO   ",
"   oooooooooooooooooooooooooooooOOOOOOOOOOOOOOOOOOOOOOOOOOOOO   ",
"   oooooooooooooooooooooooooooooOOOOOOOOOOOOOOOOOOOOOOOOOOOOO   ",
"   oooooooooooooooooooooooooooooOOOOOOOOOOOOOOOOOOOOOOOOOOOOO   ",
"   oooooooooooooooooooooooooooooOOOOOOOOOOOOOOOOOOOOOOOOOOOOO   ",
"   oooooooooooooooooooooooooooooOOOOOOOOOOOOOOOOOOOOOOOOOOOOO   ",
"   oooooooooooooooooooooooooooooOOOOOOOOOOOOOOOOOOOOOOOOOOOOO   ",
"   oooooooooooooooooooooooooooooOOOOOOOOOOOOOOOOOOOOOOOOOOOOO   ",
"   oooooooooooooooooooooooooooooOOOOOOOOOOOOOOOOOOOOOOOOOOOOO   ",
"   oooooooooooooooooooooooooooooOOOOOOOOOOOOOOOOOOOOOOOOOOOOO   ",
"   oooooooooooooooooooooooooooooOOOOOOOOOOOOOOOOOOOOOOOOOOOOO   "
};
