/* XPM */
static char *b525025faeec4158cb7ab1bc7a8179c8w0n9cQdwi5rs89DI[] = {
/* columns rows colors chars-per-pixel */
"64 64 17 1 ",
"  c None",
". c #2F160D",
"X c #3D2017",
"o c #564332",
"O c #654D3B",
"+ c #6F5B46",
"@ c #7D6855",
"# c #84533A",
"$ c #AD5534",
"% c #B35E3B",
"& c #845D4A",
"* c #9F6142",
"= c #906149",
"- c #926B56",
"; c #B66746",
": c #957C66",
"> c #B8A38B",
/* pixels */
" -------@@@@::--OO++::>>OO==::----------@@@@::--OO++::>>OO==::--",
"--------@@@@::--OO++::>>OO==::----------@@@@::--OO++::>>OO==::--",
"$$$$%%$$==;;;;%%****==--..$$$$$$$$$$%%$$==;;;;%%****==--..$$$$$$",
"$$$$%%$$==;;;;%%****==--..$$$$$$$$$$%%$$==;;;;%%****==--..$$$$$$",
"%%$$$$%%==;;;;****==----..%%$$$$%%$$$$%%==;;;;****==----..%%$$$$",
"%%$$$$%%==;;;;****==----..%%$$$$%%$$$$%%==;;;;****==----..%%$$$$",
"$$$$$$$$&&**;;**==&&OO@@..$$$$$$$$$$$$$$&&**;;**==&&OO@@..$$$$$$",
"$$$$$$$$&&**;;**==&&OO@@..$$$$$$$$$$$$$$&&**;;**==&&OO@@..$$$$$$",
"@@::::&&@@--::--oo@@::++++@@::@@@@::::&&@@--::--oo@@::++++@@::@@",
"@@::::&&@@--::--oo@@::++++@@::@@@@::::&&@@--::--oo@@::++++@@::@@",
"..$$$$$$$$%%%%%%XX&&--==&&--&&&&..$$$$$$$$%%%%%%XX&&--==&&--&&&&",
"..$$$$$$$$%%%%%%XX&&--==&&--&&&&..$$$$$$$$%%%%%%XX&&--==&&--&&&&",
"..**$$;;%%%%%%;;XX--&&====--&&++..**$$;;%%%%%%;;XX--&&====--&&++",
"..**$$;;%%%%%%;;XX--&&====--&&++..**$$;;%%%%%%;;XX--&&====--&&++",
"..**%%%%%%;;%%%%XX==------&&&&&&..**%%%%%%;;%%%%XX==------&&&&&&",
"..**%%%%%%;;%%%%XX==------&&&&&&..**%%%%%%;;%%%%XX==------&&&&&&",
"@@@@--OO++++++++++OO++@@oo++OO--@@@@--OO++++++++++OO++@@oo++OO--",
"@@@@--OO++++++++++OO++@@oo++OO--@@@@--OO++++++++++OO++@@oo++OO--",
"%%%%%%%%OO&&&&======--==XX;;%%%%%%%%%%%%OO&&&&======--==XX;;%%%%",
"%%%%%%%%OO&&&&======--==XX;;%%%%%%%%%%%%OO&&&&======--==XX;;%%%%",
"%%%%%%%%oo&&==========--XX;;;;%%%%%%%%%%oo&&==========--XX;;;;%%",
"%%%%%%%%oo&&==========--XX;;;;%%%%%%%%%%oo&&==========--XX;;;;%%",
"%%%%%%%%oo&&====********XX%%%%%%%%%%%%%%oo&&====********XX%%%%%%",
"%%%%%%%%oo&&====********XX%%%%%%%%%%%%%%oo&&====********XX%%%%%%",
"OO--++OO++++::++++++&&++oo@@oo++OO--++OO++++::++++++&&++oo@@oo++",
"OO--++OO++++::++++++&&++oo@@oo++OO--++OO++++::++++++&&++oo@@oo++",
"..####======##--##%%%%%%$$%%%%%%..####======##--##%%%%%%$$%%%%%%",
"..####======##--##%%%%%%$$%%%%%%..####======##--##%%%%%%$$%%%%%%",
"XX****##======####$$$$%%%%$$;;%%XX****##======####$$$$%%%%$$;;%%",
"XX****##======####$$$$%%%%$$;;%%XX****##======####$$$$%%%%$$;;%%",
"..************####%%%%$$%%%%;;%%..************####%%%%$$%%%%;;%%",
"..************####%%%%$$%%%%;;%%..************####%%%%$$%%%%;;%%",
"##::&&OO@@@@@@@@++++::::@@--oo##&&&&--++++@@::--oo++::::@@##--##",
"##::&&OO@@@@@@@@++++::::@@--oo##&&&&--++++@@::--oo++::::@@##--##",
"%%$$$$$$**;;;;;;;;**--&&..$$$$$$$$$$%%$$==;;;;%%****--==..$$$$$$",
"%%$$$$$$**;;;;;;;;**--&&..$$$$$$$$$$%%$$==;;;;%%****--==..$$$$$$",
"$$$$%%%%**;;;;****--OO&&..$$$$$$%%$$$$%%==;;;;****==::::..%%$$$$",
"$$$$%%%%**;;;;****--OO&&..$$$$$$%%$$$$%%==;;;;****==::::..%%$$$$",
"$$$$$$$$--;;;;**==&&##@@..$$%%$$$$$$$$$$&&;;;;**==&&##@@..$$$$$$",
"$$$$$$$$--;;;;**==&&##@@..$$%%$$$$$$$$$$&&;;;;**==&&##@@..$$$$$$",
"@@@@>>::@@++--++++@@::@@--@@::++@@::::&&++@@@@@@OO++@@@@@@@@::++",
"@@@@>>::@@++--++++@@::@@--@@::++@@::::&&++@@@@@@OO++@@@@@@@@::++",
"XX$$$$%%$$%%$$;;@@--&&&&----&&##..$$$$$$%%%%%%%%XX&&----&&--==&&",
"XX$$$$%%$$%%$$;;@@--&&&&----&&##..$$$$$$%%%%%%%%XX&&----&&--==&&",
"XX**$$$$$$%%%%;;++==----==--&&++..**$$%%%%%%%%;;XX==&&&&====&&&&",
"XX**$$$$$$%%%%;;++==----==--&&++..**$$%%%%%%%%;;XX==&&&&====&&&&",
"XX**$$%%$$;;;;%%++&&&&##----&&&&XX##%%%%%%;;%%%%XX##----====&&&&",
"XX**$$%%$$;;;;%%++&&&&##----&&&&XX##%%%%%%;;%%%%XX##----====&&&&",
"++::@@OOOO++oo++OO++oo@@@@@@::++@@@@::&&++++++++++OOoo@@ooOOOO::",
"++::@@OOOO++oo++OO++oo@@@@@@::++@@@@::&&++++++++++OOoo@@ooOOOO::",
"%%%%%%%%--&&--##======&&##;;%%%%%%%%%%%%OO&&&&======--==XX;;%%%%",
"%%%%%%%%--&&--##======&&##;;%%%%%%%%%%%%OO&&&&======--==XX;;%%%%",
"%%;;%%%%@@==&&##==##====##;;%%%%%%%%%%%%oo&&====##====--XX;;;;%%",
"%%;;%%%%@@==&&##==##====##;;%%%%%%%%%%%%oo&&====##====--XX;;;;%%",
"%%%%%%%%@@&&##====******&&;;;;$$%%%%%%%%oo&&======******XX%%%%$$",
"%%%%%%%%@@&&##====******&&;;;;$$%%%%%%%%oo&&======******XX%%%%$$",
"oo@@@@oooo@@++++oo++OO&&OO++OOOOOO@@@@OO++@@@@++OO++&&++oo++oo++",
"oo@@@@oooo@@++++oo++OO&&OO++OOOOOO@@@@OO++@@@@++OO++&&++oo++oo++",
"..####==##======**%%%%%%;;%%%%%%..####======##--##;;%%%%$$%%%%%%",
"..####==##======**%%%%%%;;%%%%%%..####======##--##;;%%%%$$%%%%%%",
"XX********====--;;%%%%%%%%%%%%;;XX****##======##==%%$$%%%%$$;;$$",
"XX********====--;;%%%%%%%%%%%%;;XX****##======##==%%$$%%%%$$;;$$",
"XX************--**$$%%$$;;%%;;%%..************####%%%%$$%%%%;;%%",
"XX************--**$$%%$$;;%%;;%%..************####%%%%$$%%%%;;%%"
};
